<svg width="64" height="64" viewBox="0 0 64 64" fill="none" xmlns="http://www.w3.org/2000/svg">
<circle cx="32" cy="32" r="32" fill="#FF6767"/>
<path d="M32 13C21.5235 13 13 21.5235 13 32C13 40.1652 18.1776 47.1424 25.4214 49.8244C25.2127 47.9644 25.2454 44.9183 25.5897 43.4435C25.9121 42.0581 27.6725 34.6149 27.6725 34.6149C27.6725 34.6149 27.141 33.5507 27.141 31.9788C27.141 29.5087 28.5722 27.6657 30.3544 27.6657C31.8702 27.6657 32.6012 28.8037 32.6012 30.1672C32.6012 31.6919 31.6318 33.9694 31.1297 36.0802C30.711 37.8488 32.0164 39.2908 33.7597 39.2908C36.9163 39.2908 39.3428 35.962 39.3428 31.1577C39.3428 26.9054 36.2879 23.9318 31.9249 23.9318C26.8719 23.9318 23.9058 27.7223 23.9058 31.64C23.9058 33.1661 24.4933 34.8028 25.2276 35.6936C25.3724 35.8698 25.3936 36.0235 25.3506 36.2025C25.216 36.7633 24.9168 37.9697 24.8574 38.217C24.7802 38.5428 24.5999 38.6105 24.2638 38.454C22.0451 37.4211 20.6583 34.1785 20.6583 31.573C20.6583 25.9709 24.7283 20.825 32.3941 20.825C38.5558 20.825 43.3437 25.2147 43.3437 31.0833C43.3437 37.2046 39.4835 42.1305 34.1272 42.1305C32.3272 42.1305 30.6358 41.1954 30.0573 40.0908C30.0573 40.0908 29.1665 43.4817 28.9499 44.3131C28.5762 45.7508 26.9762 48.7293 26.173 50.0822C28.0104 50.6757 29.9677 51 32 51C42.4769 51 51 42.4769 51 32C51 21.5235 42.4769 13 32 13Z" fill="white"/>
</svg>
