<svg width="64" height="64" viewBox="0 0 64 64" fill="none" xmlns="http://www.w3.org/2000/svg">
<circle cx="32" cy="32" r="32" fill="#5BCCFF"/>
<path d="M50.5837 20.0557C49.2181 20.6606 47.7492 21.0643 46.1997 21.2552C47.775 20.32 48.9868 18.8284 49.5556 17.0663C48.0816 17.9303 46.4485 18.5652 44.7112 18.8996C43.3239 17.4286 41.345 16.5161 39.1525 16.5161C34.9409 16.5161 31.5272 19.8999 31.5272 24.0723C31.5272 24.6627 31.5964 25.2377 31.7265 25.7961C25.3905 25.4782 19.7708 22.4661 16.0114 17.8952C15.3507 19.0121 14.9791 20.32 14.9791 21.7001C14.9791 24.3231 16.3221 26.6323 18.3701 27.9928C17.12 27.9546 15.9432 27.6067 14.913 27.0493C14.913 27.072 14.913 27.1061 14.913 27.1381C14.913 30.8036 17.5422 33.856 21.0271 34.5507C20.3902 34.7252 19.7172 34.8222 19.0235 34.8222C18.5311 34.8222 18.0511 34.7665 17.5866 34.6828C18.5569 37.6785 21.3719 39.8679 24.7071 39.9329C22.0976 41.9561 18.8108 43.168 15.2372 43.168C14.6199 43.168 14.016 43.1329 13.4194 43.0606C16.7959 45.1985 20.8052 46.4516 25.1086 46.4516C39.1319 46.4516 46.8036 34.9357 46.8036 24.9455C46.8036 24.6183 46.7933 24.2921 46.7778 23.9701C48.2746 22.913 49.5649 21.5794 50.5837 20.0557Z" fill="white"/>
</svg>
